<?xml version="1.0" encoding="UTF-8" standalone="no"?>
<!-- Created with Inkscape (http://www.inkscape.org/) -->

<svg
   width="64"
   height="64"
   id="svg2869"
   version="1.1"
   viewBox="0 0 64 64"
   xml:space="preserve"
   xmlns="http://www.w3.org/2000/svg"
   xmlns:svg="http://www.w3.org/2000/svg"
   xmlns:rdf="http://www.w3.org/1999/02/22-rdf-syntax-ns#"
   xmlns:cc="http://creativecommons.org/ns#"
   xmlns:dc="http://purl.org/dc/elements/1.1/"><defs
     id="defs2871"><linearGradient
       id="linearGradient5"><stop
         style="stop-color:#ef2929;stop-opacity:1;"
         offset="0"
         id="stop19" /><stop
         style="stop-color:#ef2929;stop-opacity:0;"
         offset="1"
         id="stop20" /></linearGradient><linearGradient
       id="swatch18"><stop
         style="stop-color:#ef2929;stop-opacity:1;"
         offset="0"
         id="stop18" /></linearGradient><linearGradient
       id="swatch15"><stop
         style="stop-color:#3d0000;stop-opacity:1;"
         offset="0"
         id="stop15" /></linearGradient><linearGradient
       id="linearGradient5-1"><stop
         style="stop-color:#ef2929;stop-opacity:1;"
         offset="0"
         id="stop5" /><stop
         style="stop-color:#ef2929;stop-opacity:0;"
         offset="1"
         id="stop6" /></linearGradient><linearGradient
       id="linearGradient3836-9"><stop
         style="stop-color:#a40000;stop-opacity:1"
         offset="0"
         id="stop3838-8" /><stop
         style="stop-color:#ef2929;stop-opacity:1"
         offset="1"
         id="stop3840-1" /></linearGradient><linearGradient
       id="linearGradient3836-9-3"><stop
         style="stop-color:#a40000;stop-opacity:1"
         offset="0"
         id="stop3838-8-5" /><stop
         style="stop-color:#ef2929;stop-opacity:1"
         offset="1"
         id="stop3840-1-6" /></linearGradient><linearGradient
       id="linearGradient2"><stop
         style="stop-color:#73d216;stop-opacity:1;"
         offset="0"
         id="stop1" /><stop
         style="stop-color:#8ae234;stop-opacity:1;"
         offset="1"
         id="stop2" /></linearGradient></defs><metadata
     id="metadata2874"><rdf:RDF><cc:Work
         rdf:about=""><dc:format>image/svg+xml</dc:format><dc:type
           rdf:resource="http://purl.org/dc/dcmitype/StillImage" /><dc:creator><cc:Agent><dc:title>[maxwxyz]</dc:title></cc:Agent></dc:creator><dc:relation>https://www.freecad.org/wiki/index.php?title=Artwork</dc:relation><dc:publisher><cc:Agent><dc:title>FreeCAD</dc:title></cc:Agent></dc:publisher><dc:identifier>FreeCAD/src/</dc:identifier><dc:rights><cc:Agent><dc:title>FreeCAD LGPL2+</dc:title></cc:Agent></dc:rights><dc:date>2024</dc:date></cc:Work></rdf:RDF></metadata><g
     id="layer3"
     style="display:inline"><path
       d="M 11.824219,2.015625 A 1,1 0 0 0 11,3 V 22.375 38 a 1,1 0 0 0 0.212891,0.617187 l 8.080078,10.324219 0.002,0.002 a 1,1 0 0 0 0,0.002 l 9.917969,12.671875 a 1,1 0 0 0 1.603515,-0.04102 l 10.839844,-15.355469 2.5,-3.542969 10.660156,-15.101562 A 1,1 0 0 0 54.496094,26.130859 L 36.023437,15.574219 31.464844,12.970703 12.496094,2.1308594 A 1,1 0 0 0 11.824219,2.015625 Z"
       style="display:inline;fill:#eeeeec;stroke:#eeeeec;stroke-linecap:round;stroke-linejoin:round;stroke-width:2;stroke-dasharray:none"
       id="path65" /><g
       id="g14"
       style="display:inline"><path
         style="fill:none;stroke:#000000;stroke-width:2;stroke-linecap:round;stroke-linejoin:round;stroke-dasharray:none"
         d="M 12,3 V 38 L 30,61 54,27 Z"
         id="path2" /><path
         style="fill:none;stroke:#000000;stroke-width:1;stroke-linecap:round;stroke-linejoin:round;stroke-dasharray:none"
         d="M 12,3 30,61"
         id="path3" /><path
         style="fill:none;stroke:#000000;stroke-width:0.5;stroke-linecap:round;stroke-linejoin:round;stroke-dasharray:none"
         d="M 30.969213,13.83955 40.950042,46"
         id="path4" /><path
         style="fill:none;stroke:#000000;stroke-width:0.5;stroke-linecap:round;stroke-linejoin:round;stroke-dasharray:none"
         d="M 22.118795,35.605007 35.527406,16.444232"
         id="path9" /><path
         style="fill:none;stroke:#000000;stroke-width:0.5;stroke-linecap:round;stroke-linejoin:round;stroke-dasharray:none"
         d="M 43.340646,42.100751 19.936037,28.571674"
         id="path10" /><path
         style="fill:none;stroke:#000000;stroke-width:0.5;stroke-linecap:round;stroke-linejoin:round;stroke-dasharray:none"
         d="M 22.118795,35.605007 12,22.375001"
         id="path11" /><path
         style="fill:none;stroke:#000000;stroke-width:0.5;stroke-linecap:round;stroke-linejoin:round;stroke-dasharray:none"
         d="m 19.936037,28.571674 0.146688,19.756252"
         id="path12" /><path
         id="path14"
         style="fill:none;stroke:#000000;stroke-width:0.5;stroke-linecap:round;stroke-linejoin:round;stroke-dasharray:none"
         d="M 39,28 38.95276,39.564328 M 24.994462,31.495706 39,28 32.929626,20.156435" /></g><g
       id="g42"
       style="display:inline"><path
         d="m 43.339844,42.101562 -4.386719,-2.537109 1.886719,6.080078 z"
         style="fill:#8ae234;stroke:#000000;stroke-width:0.25;stroke-linecap:round;stroke-linejoin:round;stroke-dasharray:none"
         id="path56" /><path
         d="M 32.929687,20.15625 35.527344,16.443359 30.96875,13.839844 Z"
         style="fill:#8ae234;stroke:#000000;stroke-width:0.25;stroke-linecap:round;stroke-linejoin:round;stroke-dasharray:none"
         id="path55" /><path
         d="M 39,28 38.95313,39.564453 43.339849,42.101562 54,27 35.527344,16.443359 32.929687,20.15625 Z"
         style="fill:#ef2929;stroke:#000000;stroke-width:0.25;stroke-linecap:round;stroke-linejoin:round;stroke-dasharray:none"
         id="path54" /><path
         d="M 35.625,28.841797 38.953125,39.564453 39,28 Z"
         style="fill:#ef2929;stroke:#000000;stroke-width:0.25;stroke-linecap:round;stroke-linejoin:round;stroke-dasharray:none"
         id="path53" /><path
         d="M 24.994141,31.496094 38.953125,39.564453 35.625,28.841797 Z"
         style="fill:#729fcf;stroke:#000000;stroke-width:0.25;stroke-linecap:round;stroke-linejoin:round;stroke-dasharray:none"
         id="path51" /><path
         d="M 20.082031,48.326172 19.966797,32.791016 12,22.375 V 38 Z"
         style="fill:#204a87;stroke:#000000;stroke-width:0.25;stroke-linecap:round;stroke-linejoin:round;stroke-dasharray:none"
         id="path49" /><path
         d="M 22.119141,35.605469 19.966797,32.791016 20.082031,48.328125 30,61 Z"
         style="fill:#a40000;stroke:#000000;stroke-width:0.25;stroke-linecap:round;stroke-linejoin:round;stroke-dasharray:none"
         id="path48" /><path
         d="M 22.119141,35.605469 30,61 40.839844,45.644531 38.953125,39.564453 24.994141,31.496094 Z"
         style="fill:#ef2929;stroke:#000000;stroke-width:0.25;stroke-linecap:round;stroke-linejoin:round;stroke-dasharray:none"
         id="path47" /><path
         d="m 19.935547,28.572266 0.03125,4.21875 2.152344,2.814453 z"
         style="fill:#4e9a06;stroke:#000000;stroke-width:0.25;stroke-linecap:round;stroke-linejoin:round;stroke-dasharray:none"
         id="path46" /><path
         d="m 19.935547,28.572266 2.183594,7.033203 2.875,-4.109375 z"
         style="fill:#8ae234;stroke:#000000;stroke-width:0.25;stroke-linecap:round;stroke-linejoin:round;stroke-dasharray:none"
         id="path45" /><path
         d="m 12,3 v 19.375 l 7.966797,10.416016 -0.03125,-4.21875 z"
         style="fill:#a40000;stroke:#000000;stroke-width:0.25;stroke-linecap:round;stroke-linejoin:round;stroke-dasharray:none"
         id="path44" /><path
         d="m 12,3 7.935547,25.572266 5.058594,2.923828 7.935546,-11.339844 -1.960937,-6.316406 z"
         style="fill:#ef2929;stroke:#000000;stroke-width:0.25;stroke-linecap:round;stroke-linejoin:round;stroke-dasharray:none"
         id="path43" /><path
         d="M 35.625,28.841797 39,28 32.929687,20.15625 Z"
         style="fill:#ef2929;stroke:#000000;stroke-width:0.25;stroke-linecap:round;stroke-linejoin:round;stroke-dasharray:none"
         id="path52" /><path
         d="M 24.994141,31.496094 35.625,28.841797 32.929687,20.15625 Z"
         style="fill:#729fcf;stroke:#000000;stroke-width:0.25;stroke-linecap:round;stroke-linejoin:round;stroke-dasharray:none"
         id="path50" /></g><path
       style="fill:#eeeeec;stroke:#000000;stroke-width:1;stroke-linecap:round;stroke-linejoin:round;stroke-dasharray:none"
       d="M 12,3 30,61"
       id="path66" /><text
       xml:space="preserve"
       style="font-style:normal;font-variant:normal;font-weight:bold;font-stretch:normal;font-size:23.9362px;font-family:Evolventa;-inkscape-font-specification:'Evolventa, Bold';font-variant-ligatures:no-common-ligatures;font-variant-caps:normal;font-variant-numeric:normal;font-variant-east-asian:normal;display:none;fill:#ffffff;stroke:none;stroke-width:1;stroke-linecap:round;stroke-linejoin:round;stroke-dasharray:none"
       x="5.359004"
       y="61.688828"
       id="text66"><tspan
         id="tspan66"
         x="0"
         y="0"
         style="fill:#ffffff;stroke:none;stroke-width:1">fcSC</tspan></text><path
       d="m 33.53125,41.689453 c -3.956392,0 -7.123394,3.054478 -7.144531,6.986328 -0.0081,-0.008 -0.01526,-0.01548 -0.02344,-0.02344 -1.691276,-1.659957 -4.000324,-2.535156 -6.378906,-2.535157 -2.239951,0 -4.266174,0.785447 -5.828125,2.095704 V 42.28125 L 12.404297,42.0625 C 11.894652,41.998798 11.573376,42 11.367188,42 9.4949482,42 7.8350339,42.691036 6.6113281,44.089844 l -0.00781,0.0078 C 5.8995529,44.883478 5.5137781,45.683401 5.2773437,46.667969 H 3.8378906 v 6.65625 H 4.9863281 V 63.689453 H 12.169922 V 59.462891 C 13.731156,62.181381 16.690048,64 20.080078,64 c 2.937117,0 5.344549,-1.177416 6.976563,-3.279297 0.04818,0.06896 0.09108,0.137472 0.142578,0.207031 0.0016,0.0022 0.0042,0.0036 0.0059,0.0059 0.0023,0.0031 0.0035,0.0066 0.0059,0.0098 C 28.65671,62.915331 31.05737,64 33.556641,64 36.830865,64 39.564283,62.02125 40.671875,59.169922 42.702556,62.101073 46.105379,64 50,64 c 4.421254,0 8.27984,-2.449303 10,-6.453125 l 1.197266,-2.789063 h -7.736329 l -0.589843,0.609375 c -1.143239,1.180723 -1.919459,1.472657 -2.94336,1.472657 -2.152705,0 -3.935547,-1.817026 -3.935547,-4.03125 0,-0.988272 0.385129,-2.032287 0.97461,-2.714844 l 0.0059,-0.0059 0.0059,-0.0059 c 0.660673,-0.778125 1.610951,-1.234375 2.876953,-1.234375 1.406862,0 2.291791,0.448469 3.058593,1.445313 l 0.601563,0.78125 h 7.744141 l -1.275391,-2.822266 c -0.770471,-1.706045 -1.533572,-2.773377 -2.894531,-3.931641 l -0.0059,-0.0039 -0.0039,-0.0039 c -2.021156,-1.698943 -4.611847,-2.623047 -7.294922,-2.623047 -3.885042,0 -7.30781,2.020307 -9.291015,5.058594 -0.213413,-0.788252 -0.562487,-1.498688 -1.128907,-2.253906 -1.363257,-1.806316 -3.562128,-2.804688 -5.833984,-2.804688 z m 4.898437,9.025391 h 0.460938 c -0.02132,0.112004 -0.03483,0.226694 -0.05273,0.339843 -0.135445,-0.120206 -0.270706,-0.234752 -0.408204,-0.339843 z m -18.445312,2.322265 c 0.770419,0 1.010115,0.157864 1.3125,0.740235 l 0.560547,1.078125 h 3.75 l 0.03516,0.476562 h -3.658203 l -0.591797,0.914063 c -0.43352,0.669986 -0.820521,0.833984 -1.335937,0.833984 -1.028412,0 -1.855469,-0.791252 -1.855469,-2.044922 0,-1.294703 0.732374,-1.998047 1.783203,-1.998047 z m 9.316406,1.292969 c 0.153319,0.107455 0.312715,0.209882 0.476563,0.308594 h -0.367188 z m 3.8125,1.712891 c 0.342092,0.133308 0.507087,0.221141 0.740235,0.392578 0.03136,0.02383 0.0957,0.107144 0.0957,0.25 0,0.04507 0.02667,0.154297 -0.392578,0.154297 -0.395953,0 -0.361191,0.0509 -0.404297,-0.394532 z"
       id="text68"
       style="font-weight:bold;font-size:23.9362px;font-family:Evolventa;-inkscape-font-specification:'Evolventa, Bold';font-variant-ligatures:no-common-ligatures;fill:#2e3436;stroke-linecap:round;stroke-linejoin:round"
       aria-label="fcSC"
       transform="translate(0,-2)" /><path
       d="M 6.9866656,59.688828 H 10.17018 V 49.324453 h 1.795215 V 46.667535 H 10.17018 c 0.02394,-1.19681 0.430852,-1.603725 1.651598,-1.603725 h 0.335107 v -3.015961 c -0.38298,-0.04787 -0.574469,-0.04787 -0.789895,-0.04787 -1.340427,0 -2.4414923,0.478724 -3.2553231,1.412236 -0.6941497,0.765955 -0.9574479,1.531914 -1.1250013,3.25532 H 5.837728 v 2.656918 H 6.9866656 Z M 23.0718,55.332439 c -0.789894,1.220746 -1.69947,1.747343 -3.015961,1.747343 -2.20213,0 -3.853728,-1.723407 -3.853728,-4.045218 0,-2.345747 1.555853,-3.997345 3.781919,-3.997345 1.436172,0 2.441493,0.574469 3.08777,1.819151 h 3.59043 c -0.454788,-1.292555 -0.861703,-1.962768 -1.69947,-2.776599 -1.292555,-1.268619 -3.08777,-1.962768 -4.97873,-1.962768 -3.925536,0 -6.98937,3.039897 -6.98937,6.941497 0,3.853728 3.159579,6.941498 7.085115,6.941498 3.111706,0 5.48139,-1.69947 6.582455,-4.667559 z m 4.667559,-0.69415 c 0.09575,1.340428 0.38298,2.178195 1.077129,3.111706 1.029257,1.412236 2.800536,2.250003 4.739368,2.250003 3.183514,0 5.648943,-2.465428 5.648943,-5.672879 0,-1.484044 -0.526597,-2.728727 -1.579789,-3.686175 -0.69415,-0.646277 -1.244683,-0.933512 -2.992025,-1.603725 -1.627662,-0.598405 -1.69947,-0.622341 -1.914896,-0.765958 -0.670214,-0.406916 -1.029257,-0.957448 -1.029257,-1.627662 0,-1.053193 0.742022,-1.795215 1.819151,-1.795215 1.101066,0 1.771279,0.670214 1.867024,1.867024 h 3.39894 c -0.07181,-1.292555 -0.359043,-2.154258 -1.00532,-3.015962 -0.957448,-1.268618 -2.537237,-2.01064 -4.236707,-2.01064 -2.872344,0 -5.146283,2.226066 -5.146283,5.026602 0,2.226066 1.292555,3.925536 3.686174,4.811176 2.345748,0.861703 2.465429,0.933511 2.992025,1.316491 0.598405,0.454787 0.88564,1.077129 0.88564,1.843087 0,1.268618 -0.981384,2.154258 -2.39362,2.154258 -1.460108,0 -2.250003,-0.718086 -2.39362,-2.202131 z m 26.569185,0.119681 c -1.460108,1.507981 -2.680854,2.08245 -4.380324,2.08245 -3.27926,0 -5.936178,-2.728727 -5.936178,-6.031922 0,-1.436172 0.550533,-2.968089 1.460108,-4.021282 1.077129,-1.268618 2.58511,-1.938832 4.404261,-1.938832 2.058513,0 3.446813,0.670214 4.643623,2.226067 h 3.662238 c -0.670213,-1.484045 -1.244682,-2.273939 -2.369683,-3.231387 -1.651598,-1.3883 -3.78192,-2.154258 -6.007986,-2.154258 -5.002666,0 -9.095756,4.09309 -9.095756,9.095755 0,5.122347 4.140962,9.215437 9.311181,9.215437 3.638303,0 6.773945,-2.010641 8.162244,-5.242028 z"
       id="text69"
       style="font-weight:bold;font-size:23.9362px;font-family:Evolventa;-inkscape-font-specification:'Evolventa, Bold';font-variant-ligatures:no-common-ligatures;fill:#ffffff;stroke-linecap:round;stroke-linejoin:round"
       aria-label="fcSC" /></g></svg>
